<svg width="1666" height="527" viewBox="0 0 1666 527" fill="none" xmlns="http://www.w3.org/2000/svg">
<path d="M1583.3 212.689V14.226H1665.59V521.5H1576.93L1538.97 308.297V521.5H1450.23V14.226H1545.27" fill="black"/>
<path d="M1304.56 161.22H1215.89C1227.86 78.7057 1158.74 97.2344 1187.85 153.15C1217.38 209.889 1282.6 236.57 1302.79 313.979C1335.15 437.997 1286.92 553.287 1163.77 519.523C1134.45 511.453 1095.57 472.337 1095.57 436.927V330.366H1184.24L1186.22 394.27C1186.65 408.763 1195.71 420.868 1207.89 423.586C1212.14 424.492 1216.6 421.774 1217.95 416.998C1246.77 316.532 1114.48 265.063 1098.26 183.866C1083.39 109.422 1100.6 19.0022 1175.24 7.638C1266.03 -6.27909 1314.12 58.7771 1304.56 161.302V161.22Z" fill="black"/>
<path d="M1418.58 14.226H1329.91V521.5H1418.58V14.226Z" fill="black"/>
<path d="M213.884 93.1169C209.918 65.5298 179.112 14.1436 155.246 14.1436H0.083252V521.417H142.57C170.472 521.417 199.154 478.76 207.298 449.526C220.683 401.269 221.816 147.879 213.884 93.1169ZM138.462 378.458C136.692 414.116 138.462 430.009 108.86 427.127C103.832 427.786 97.3169 427.456 88.6771 425.974V102.505C92.997 102.505 96.6796 102.752 100.15 103.246V102.505C124.228 102.422 134.213 108.434 137.542 136.021C144.624 194.654 141.578 316.449 138.462 378.541V378.458Z" fill="black"/>
<path d="M816.832 113.457C814.707 90.8112 803.093 54.742 789.354 38.7662C736.949 -22.0902 620.736 -0.0204787 604.306 94.6816C595.383 145.985 595.383 375 603.031 427.868C620.523 548.922 778.165 560.286 808.759 449.609C822.993 398.14 822.639 174.149 816.903 113.457H816.832ZM738.861 405.963C738.861 421.527 727.884 434.291 714.499 434.291C703.947 434.291 694.954 426.304 691.625 415.269C690.704 412.963 690.138 410.328 690.138 407.528V120.786C690.138 120.786 690.35 120.375 690.492 120.128C692.192 106.458 702.319 95.8345 714.499 95.8345C727.884 95.8345 738.861 108.599 738.861 124.163V405.963Z" fill="black"/>
<path d="M984.672 212.689V14.226H1067.03V521.5H978.369L940.339 308.297V521.5H851.675V14.226H946.642" fill="black"/>
<path d="M273.23 438.327L346.385 430.174L375.562 333.331C350.209 327.072 333.709 313.567 333.709 313.567C333.709 313.567 309.985 316.12 275.284 342.966C254.18 359.353 254.251 414.857 256.092 446.232C261.049 441.868 266.856 438.985 273.23 438.244V438.327Z" fill="black"/>
<path d="M475.133 430.997L550.059 439.15C556.149 439.809 561.815 442.362 566.63 446.232C565.214 411.151 562.381 362.483 557.353 349.636C544.11 315.461 482.002 313.567 482.002 313.567C469.255 322.955 456.791 328.802 444.823 332.343L475.062 430.997H475.133Z" fill="black"/>
<path d="M265.865 146.891C265.865 146.891 234.705 137.421 234.209 187.901C234.138 198.689 237.254 209.559 243.486 217.547C249.718 225.535 260.128 232.864 275.708 229.076C275.708 229.076 261.97 182.384 265.865 146.891Z" fill="black"/>
<path d="M550.342 146.891C550.342 146.891 581.502 137.421 581.998 187.901C582.069 198.689 578.953 209.559 572.721 217.547C566.489 225.535 556.079 232.864 540.499 229.076C540.499 229.076 554.237 182.384 550.342 146.891Z" fill="black"/>
<path d="M548.926 454.549L467.414 445.409L421.665 291.662L421.453 476.784C421.453 489.054 427.543 500.254 436.962 505.606L564.364 520.182C570.313 520.841 575.766 517.053 578.174 510.877C580.865 496.054 577.891 485.184 572.225 472.419C567.764 462.373 558.982 455.702 548.926 454.549Z" fill="black"/>
<path d="M402.261 291.662L356.512 445.409L275 454.549C264.944 455.702 256.233 462.373 251.701 472.419C245.965 485.266 242.99 496.301 245.894 511.453C247.877 516.806 253.755 520.923 259.562 520.182L387.035 505.606C396.454 500.254 402.544 489.054 402.544 476.784V291.662" fill="black"/>
<path d="M404.244 278.486C407.643 279.145 410.263 281.451 411.892 284.497C413.592 281.451 416.212 279.145 419.541 278.486C425.206 277.333 430.447 280.956 432.359 287.297L443.123 323.367C500.203 304.426 542.269 240.687 542.269 164.761C542.269 73.8471 482.215 0.226562 408.139 0.226562C334.063 0.226562 274.009 73.9295 274.009 164.761C274.009 243.817 319.545 309.532 380.095 325.425L391.426 287.297C393.338 280.956 398.649 277.415 404.244 278.486Z" fill="black"/>
</svg>
